#define level_4_width 32
#define level_4_height 16
static unsigned char level_4_bits[] = {
   0x00, 0x80, 0x00, 0x00, 0x00, 0x00, 0x01, 0x00, 0x40, 0x00, 0x02, 0x00,
   0x40, 0x00, 0x04, 0x00, 0x40, 0x00, 0x08, 0x00, 0x4b, 0x00, 0xf0, 0xff,
   0x4a, 0x00, 0x00, 0x00, 0x4a, 0x00, 0x00, 0x00, 0x4a, 0x00, 0x40, 0x04,
   0x4f, 0x00, 0x40, 0x84, 0x48, 0x00, 0x40, 0x04, 0x48, 0x00, 0x44, 0x04,
   0x48, 0x00, 0x44, 0x04, 0x4f, 0x20, 0x44, 0x84, 0x40, 0x20, 0x44, 0x84,
   0x40, 0x20, 0x44, 0x84 };
