#define level_1_width 32
#define level_1_height 16
static unsigned char level_1_bits[] = {
   0xff, 0x80, 0x03, 0x00, 0xff, 0x80, 0x03, 0x00, 0x7f, 0x80, 0x01, 0x00,
   0x3e, 0x00, 0x01, 0xf0, 0x18, 0x00, 0xf1, 0x61, 0x00, 0x00, 0xe1, 0x00,
   0x00, 0x00, 0x40, 0x00, 0x00, 0x00, 0x00, 0xf8, 0x00, 0x00, 0x00, 0xc0,
   0x00, 0x00, 0x00, 0x00, 0x00, 0x00, 0x00, 0x1f, 0x00, 0x60, 0x18, 0x00,
   0xe0, 0x70, 0x38, 0x00, 0xff, 0x3f, 0xf0, 0xff, 0xff, 0x1f, 0xe0, 0xff,
   0x07, 0x1c, 0xe0, 0x00 };
