#define level_3_width 32
#define level_3_height 16
static unsigned char level_3_bits[] = {
   0x00, 0x00, 0x00, 0x00, 0x00, 0x00, 0x00, 0x00, 0x00, 0x00, 0xc0, 0x00,
   0x00, 0x00, 0x00, 0x00, 0x00, 0x00, 0x00, 0xf8, 0x00, 0x00, 0x70, 0x00,
   0x00, 0x00, 0x50, 0x00, 0x00, 0x00, 0x50, 0x00, 0x00, 0x00, 0x5e, 0xfc,
   0xe0, 0x00, 0x40, 0x00, 0x00, 0x00, 0x78, 0x00, 0x00, 0xf0, 0x78, 0x00,
   0x00, 0x00, 0xf8, 0x00, 0x07, 0x00, 0xf8, 0x00, 0x07, 0x00, 0xf8, 0x00,
   0x07, 0x00, 0xf8, 0x00 };
