#define level_2_width 32
#define level_2_height 16
static unsigned char level_2_bits[] = {
   0x20, 0x40, 0x08, 0x00, 0x20, 0x40, 0x08, 0x00, 0x20, 0x40, 0x08, 0x00,
   0x20, 0x40, 0x08, 0xfc, 0x20, 0x40, 0x08, 0x40, 0x20, 0x40, 0x78, 0x80,
   0x20, 0x40, 0x00, 0x00, 0x20, 0x40, 0x00, 0x00, 0xf0, 0xff, 0x00, 0xfe,
   0x00, 0x00, 0x00, 0x20, 0x00, 0x00, 0x00, 0x40, 0xe0, 0x38, 0x00, 0x80,
   0x40, 0x10, 0xfe, 0x01, 0x47, 0x10, 0x48, 0x00, 0x42, 0x10, 0x48, 0x00,
   0x42, 0x10, 0x48, 0x00 };
