#define smily_width 12
#define smily_height 12
static unsigned char smily_bits[] = {
   0x0c, 0x03, 0x92, 0x04, 0x04, 0x02, 0x04, 0x02, 0x04, 0x02, 0x04, 0x02,
   0x64, 0x02, 0x60, 0x00, 0x02, 0x04, 0x04, 0x02, 0xf8, 0x01, 0x00, 0x00 };
