#define won_width 128
#define won_height 64
static unsigned char won_bits[] = {
   0x00, 0x00, 0x00, 0x00, 0x00, 0x00, 0x00, 0x00, 0x00, 0x00, 0x00, 0x00,
   0x00, 0x00, 0x00, 0x00, 0x00, 0x00, 0x00, 0x00, 0x00, 0x00, 0x00, 0x00,
   0x00, 0x00, 0x00, 0x00, 0x00, 0x00, 0x00, 0x00, 0x00, 0x00, 0x00, 0x00,
   0x00, 0x00, 0x00, 0x00, 0x00, 0x00, 0x00, 0x00, 0x00, 0x00, 0x00, 0x00,
   0x00, 0x00, 0x00, 0x00, 0x00, 0x00, 0x00, 0x00, 0x00, 0x00, 0x00, 0x00,
   0x00, 0x00, 0x00, 0x00, 0x00, 0x00, 0x00, 0x00, 0x00, 0x00, 0x00, 0x00,
   0x00, 0x00, 0x00, 0x00, 0x00, 0x00, 0x00, 0x00, 0x00, 0x08, 0x80, 0x00,
   0x00, 0x00, 0x00, 0x00, 0x00, 0x00, 0x00, 0x00, 0x00, 0x00, 0x00, 0x00,
   0x00, 0x1c, 0xc0, 0x01, 0x00, 0x00, 0x00, 0x00, 0x00, 0x00, 0x00, 0x00,
   0x00, 0x00, 0x00, 0x00, 0x00, 0x38, 0xc0, 0x01, 0x00, 0x00, 0x00, 0x00,
   0x00, 0x00, 0x00, 0x00, 0x00, 0x00, 0xf0, 0x00, 0x00, 0x38, 0xe0, 0x00,
   0x00, 0x00, 0x00, 0x00, 0x00, 0x00, 0x00, 0x00, 0x00, 0x80, 0xf2, 0x00,
   0x00, 0x30, 0xf0, 0x00, 0x00, 0x00, 0x00, 0x00, 0x00, 0x00, 0x00, 0x00,
   0x00, 0xc0, 0xf7, 0x01, 0x00, 0x78, 0x70, 0x00, 0x00, 0x00, 0x00, 0x00,
   0x00, 0x00, 0x00, 0x00, 0x00, 0xe0, 0xff, 0x01, 0x00, 0xe0, 0x7f, 0x00,
   0x00, 0x00, 0x00, 0x40, 0x00, 0x00, 0x00, 0x00, 0x02, 0xe0, 0xdf, 0x01,
   0x00, 0xa0, 0x3f, 0x40, 0x01, 0x04, 0x01, 0x60, 0x20, 0x20, 0xf0, 0x00,
   0x03, 0xe0, 0xde, 0x00, 0x00, 0x80, 0x1f, 0xe0, 0x03, 0x8e, 0x03, 0xe0,
   0x70, 0x70, 0xf8, 0x03, 0xd7, 0xc1, 0xc9, 0x01, 0x00, 0x00, 0x0f, 0xf0,
   0x07, 0xc6, 0x03, 0xe0, 0x78, 0x30, 0xfc, 0x07, 0xff, 0xc3, 0xe1, 0x01,
   0x00, 0x00, 0x0e, 0xf8, 0x1c, 0x8e, 0x03, 0xe0, 0x78, 0x70, 0x8e, 0x0f,
   0xff, 0x87, 0xe3, 0x01, 0x00, 0x00, 0x07, 0x38, 0x1c, 0xce, 0x03, 0x60,
   0xf8, 0x70, 0x0e, 0x1c, 0x9f, 0x87, 0xf3, 0x00, 0x00, 0x00, 0x0e, 0x38,
   0x1c, 0xce, 0x03, 0xe0, 0xfc, 0x70, 0x0e, 0x1c, 0x1f, 0x0f, 0xf7, 0x00,
   0x00, 0x00, 0x07, 0x1c, 0x1c, 0xce, 0x03, 0xe0, 0xfc, 0x38, 0x0e, 0x3c,
   0x0f, 0x0e, 0x7f, 0x00, 0x00, 0x00, 0x06, 0x1c, 0x1c, 0xee, 0x03, 0xe0,
   0xef, 0x3d, 0x0e, 0x3c, 0x07, 0x0e, 0x3e, 0x00, 0x00, 0x00, 0x0f, 0x3c,
   0x0f, 0xfe, 0x0f, 0xc0, 0xcf, 0x1f, 0xfc, 0x9f, 0x07, 0x0e, 0x1e, 0x00,
   0x00, 0x00, 0x06, 0xf8, 0x0f, 0x7e, 0x0f, 0x80, 0x8f, 0x1f, 0xfc, 0x0f,
   0x07, 0x0c, 0x1e, 0x00, 0x00, 0x00, 0x0f, 0xfc, 0x07, 0x7c, 0x04, 0x00,
   0x00, 0x0b, 0x78, 0x03, 0x02, 0x04, 0x0c, 0x00, 0x00, 0x00, 0x06, 0xb0,
   0x01, 0x18, 0x00, 0x00, 0x00, 0x00, 0x00, 0x00, 0x00, 0x00, 0x00, 0x00,
   0x00, 0x00, 0x04, 0x00, 0x00, 0x00, 0x00, 0x00, 0x00, 0x00, 0x00, 0x00,
   0x00, 0x00, 0x00, 0x00, 0x00, 0x00, 0x00, 0x00, 0x00, 0x00, 0x00, 0x00,
   0x00, 0x00, 0x00, 0x00, 0x00, 0x00, 0x00, 0x00, 0x00, 0x00, 0x00, 0x00,
   0x00, 0x00, 0x00, 0x00, 0x00, 0x00, 0x00, 0x00, 0x00, 0x00, 0x00, 0x00,
   0x00, 0x00, 0x00, 0x00, 0x00, 0x00, 0x00, 0x00, 0x00, 0x00, 0x00, 0x00,
   0x00, 0x00, 0x00, 0x00, 0x00, 0x00, 0x00, 0x00, 0x00, 0x00, 0x00, 0x00,
   0x00, 0x00, 0x00, 0x00, 0x00, 0x00, 0x00, 0x00, 0x00, 0x00, 0x00, 0x00,
   0x00, 0x00, 0x00, 0x00, 0x00, 0x00, 0x00, 0x00, 0x00, 0x00, 0x00, 0x00,
   0x00, 0x00, 0x00, 0x00, 0x00, 0x00, 0x00, 0x00, 0x00, 0x00, 0x00, 0x00,
   0x00, 0x00, 0x00, 0x00, 0x00, 0x00, 0x00, 0x00, 0x00, 0x00, 0x00, 0x00,
   0x00, 0x00, 0x00, 0x00, 0x00, 0x00, 0x00, 0x00, 0x00, 0x00, 0x00, 0x00,
   0x00, 0x00, 0x00, 0x00, 0x00, 0x00, 0x00, 0x00, 0x00, 0x00, 0x00, 0x00,
   0x00, 0x00, 0x00, 0x00, 0x00, 0x00, 0x00, 0x00, 0x00, 0x00, 0x00, 0x00,
   0x00, 0x00, 0x00, 0x00, 0x00, 0x00, 0x00, 0x00, 0x00, 0x00, 0x00, 0x00,
   0x00, 0x00, 0x00, 0x00, 0x00, 0x00, 0x00, 0x00, 0x00, 0x00, 0x00, 0x00,
   0x00, 0x00, 0x00, 0x00, 0x00, 0x00, 0x00, 0x00, 0x00, 0x00, 0x00, 0x00,
   0x00, 0x00, 0x00, 0x00, 0x00, 0x00, 0x00, 0x00, 0x00, 0x00, 0x00, 0x00,
   0x00, 0x00, 0x00, 0x00, 0x00, 0x00, 0x00, 0x00, 0x00, 0x00, 0x00, 0x00,
   0x00, 0x00, 0x00, 0x00, 0x00, 0x00, 0x00, 0x00, 0x00, 0x00, 0x00, 0x00,
   0x00, 0x00, 0x00, 0x00, 0x00, 0x00, 0x00, 0x00, 0x00, 0x00, 0x00, 0x00,
   0x00, 0x00, 0x00, 0x00, 0x00, 0x00, 0x00, 0x00, 0x00, 0x00, 0x00, 0x00,
   0x00, 0x00, 0x00, 0x00, 0x00, 0x00, 0x00, 0x00, 0x00, 0x00, 0x00, 0x00,
   0x00, 0x00, 0x00, 0x00, 0x00, 0x00, 0x00, 0x00, 0x00, 0x00, 0x00, 0x00,
   0x00, 0x80, 0x0f, 0x00, 0x00, 0x00, 0x00, 0x00, 0x10, 0x00, 0x00, 0x00,
   0x00, 0x00, 0x00, 0x00, 0x00, 0x00, 0x08, 0x00, 0x00, 0x00, 0x00, 0x00,
   0x00, 0x01, 0x00, 0x00, 0x00, 0x00, 0x00, 0x00, 0x00, 0x00, 0x0c, 0x00,
   0x00, 0x00, 0x00, 0x00, 0x01, 0x00, 0x00, 0x00, 0x00, 0x00, 0x00, 0x00,
   0x00, 0x00, 0x04, 0x30, 0x00, 0x18, 0x00, 0x00, 0x0f, 0x00, 0x00, 0x00,
   0x00, 0x30, 0x10, 0x02, 0x0c, 0x00, 0x04, 0x20, 0xc0, 0x10, 0xf0, 0x03,
   0xf9, 0x00, 0x00, 0x00, 0x00, 0x30, 0x30, 0x02, 0x0e, 0x00, 0x02, 0x00,
   0xc0, 0x10, 0x10, 0x00, 0x81, 0x0f, 0x00, 0x00, 0x00, 0x78, 0x30, 0x03,
   0x12, 0x00, 0x02, 0x20, 0xc0, 0x11, 0x10, 0x00, 0x01, 0x0c, 0x00, 0x00,
   0x00, 0x48, 0x50, 0x07, 0x12, 0x00, 0x03, 0x20, 0x40, 0x11, 0x08, 0x00,
   0x03, 0x04, 0x00, 0x00, 0x00, 0x48, 0xd0, 0x04, 0x1f, 0xc0, 0x0f, 0x20,
   0x40, 0x12, 0x88, 0x07, 0x02, 0x06, 0x00, 0x00, 0x00, 0x7c, 0x10, 0x04,
   0x11, 0x80, 0x00, 0x20, 0x40, 0x16, 0x08, 0x04, 0x0e, 0x02, 0x00, 0x00,
   0x00, 0x44, 0x10, 0x04, 0x31, 0x80, 0x00, 0x20, 0x40, 0x14, 0x18, 0x04,
   0xf8, 0x01, 0x00, 0x00, 0x00, 0x44, 0x10, 0x04, 0x21, 0x40, 0x00, 0x20,
   0x40, 0x1c, 0x10, 0x06, 0x00, 0x00, 0x00, 0x00, 0x00, 0x00, 0x00, 0x00,
   0x20, 0x20, 0x00, 0x20, 0x00, 0x18, 0xe0, 0x03, 0x00, 0x00, 0x00, 0x00,
   0x00, 0x00, 0x00, 0x00, 0x00, 0x20, 0x00, 0x00, 0x00, 0x00, 0x00, 0x00,
   0x00, 0x00, 0x00, 0x00, 0x00, 0x00, 0x00, 0x00, 0x00, 0x30, 0x00, 0x00,
   0x00, 0x00, 0x00, 0x00, 0x00, 0x00, 0x00, 0x00, 0x00, 0x00, 0x00, 0x00,
   0x00, 0xf0, 0x1f, 0x00, 0x00, 0x00, 0x00, 0x00, 0x00, 0x00, 0x00, 0x00,
   0x00, 0x00, 0x00, 0x00, 0x00, 0x30, 0x00, 0x00, 0x00, 0x00, 0x00, 0x00,
   0x00, 0x00, 0x00, 0x00, 0x00, 0x00, 0x00, 0x00, 0x00, 0x00, 0x00, 0x00,
   0x00, 0x00, 0x00, 0x00, 0x00, 0x00, 0x00, 0x00, 0x00, 0x00, 0x00, 0x00,
   0x00, 0x00, 0x00, 0x00, 0x00, 0x00, 0x00, 0x00, 0x00, 0x00, 0x00, 0x00,
   0x00, 0x00, 0x00, 0x00, 0x00, 0x00, 0x00, 0x00, 0x00, 0x00, 0x00, 0x00,
   0x00, 0x00, 0x00, 0x00, 0x00, 0x00, 0x00, 0x00, 0x00, 0x00, 0x00, 0x00,
   0x00, 0x00, 0x00, 0x00, 0x00, 0x00, 0x00, 0x00, 0x00, 0x00, 0x00, 0x00,
   0x00, 0x00, 0x00, 0x00, 0x00, 0x00, 0x00, 0x00, 0x00, 0x00, 0x00, 0x00,
   0x00, 0x00, 0x00, 0x00, 0x00, 0x00, 0x00, 0x00, 0x00, 0x00, 0x00, 0x00,
   0x00, 0x00, 0x00, 0x00 };
